<svg xmlns="http://www.w3.org/2000/svg" width="1600" height="2200" viewBox="0 0 1600 2200" fill="none">
  <defs>
    <filter id="blur" x="-20%" y="-20%" width="140%" height="140%">
      <feGaussianBlur stdDeviation="18"/>
    </filter>
    <linearGradient id="cmyk1" x1="0" y1="0" x2="1600" y2="2200">
      <stop offset="0" stop-color="#00AEEF" stop-opacity=".18"/>
      <stop offset=".43" stop-color="#EC008C" stop-opacity=".13"/>
      <stop offset="1" stop-color="#FFF200" stop-opacity=".16"/>
    </linearGradient>
  </defs>
  <path d="M-110 430 C 270 230, 460 610, 800 395 C 1080 218, 1280 232, 1710 80" stroke="url(#cmyk1)" stroke-width="18" stroke-linecap="round" filter="url(#blur)" opacity=".85"/>
  <path d="M-90 1270 C 250 1040, 500 1350, 820 1160 C 1100 995, 1270 980, 1700 1240" stroke="#00AEEF" stroke-width="12" stroke-linecap="round" filter="url(#blur)" opacity=".18"/>
  <path d="M-60 1525 C 285 1285, 535 1605, 840 1400 C 1120 1210, 1300 1250, 1690 1515" stroke="#EC008C" stroke-width="12" stroke-linecap="round" filter="url(#blur)" opacity=".15"/>
  <path d="M-40 1780 C 330 1520, 535 1830, 920 1620 C 1190 1470, 1350 1530, 1700 1780" stroke="#FFF200" stroke-width="14" stroke-linecap="round" filter="url(#blur)" opacity=".17"/>
</svg>